<svg xmlns="http://www.w3.org/2000/svg" width="65" height="65" fill="none"><path fill="#fff" d="M13.203 28.438H3.047A3.047 3.047 0 0 0 0 31.484v30.47A3.047 3.047 0 0 0 3.047 65h10.156a3.047 3.047 0 0 0 3.047-3.047V31.484a3.047 3.047 0 0 0-3.047-3.047M8.125 59.922a3.047 3.047 0 1 1 0-6.094 3.047 3.047 0 0 1 0 6.094M48.75 10.34c0 5.384-3.297 8.405-4.225 12.003H57.44c4.24 0 7.541 3.522 7.56 7.375.011 2.278-.957 4.73-2.467 6.246l-.014.014c1.249 2.963 1.046 7.114-1.182 10.089 1.102 3.287-.008 7.326-2.08 9.49.546 2.235.285 4.136-.78 5.667C55.885 64.948 49.463 65 44.032 65h-.36c-6.131-.002-11.148-2.234-15.18-4.028-2.025-.901-4.674-2.017-6.684-2.054a1.524 1.524 0 0 1-1.495-1.523V30.256c0-.406.162-.796.451-1.081 5.03-4.97 7.192-10.231 11.314-14.36 1.88-1.883 2.563-4.727 3.224-7.478C35.866 4.988 37.047 0 39.609 0c3.047 0 9.141 1.016 9.141 10.34"/></svg>