<svg xmlns="http://www.w3.org/2000/svg" width="65" height="65" fill="none"><path fill="#fff" d="M0 51.454v5.421C0 61.356 10.918 65 24.375 65s24.375-3.644 24.375-8.125v-5.42c-5.243 3.693-14.828 5.42-24.375 5.42S5.243 55.148 0 51.455M40.625 16.25C54.082 16.25 65 12.606 65 8.125S54.082 0 40.625 0 16.25 3.644 16.25 8.125s10.918 8.125 24.375 8.125M0 38.137v6.55c0 4.482 10.918 8.126 24.375 8.126s24.375-3.644 24.375-8.126v-6.55c-5.243 4.316-14.84 6.55-24.375 6.55S5.243 42.454 0 38.138m52.813 1.396C60.087 38.124 65 35.51 65 32.5v-5.42c-2.945 2.081-7.274 3.503-12.187 4.379zm-28.438-19.22C10.918 20.313 0 24.857 0 30.469s10.918 10.156 24.375 10.156S48.75 36.08 48.75 30.469 37.832 20.312 24.375 20.312m27.84 7.147C59.834 26.089 65 23.398 65 20.312v-5.42c-4.507 3.186-12.251 4.9-20.401 5.306 3.745 1.816 6.5 4.253 7.617 7.262"/></svg>