<svg xmlns="http://www.w3.org/2000/svg" width="65" height="40" fill="none"><path fill="#fff" d="M44.15 0h-8.725c-.812 0-1.594.305-2.194.853l-9.983 9.14c-.01.01-.02.031-.03.041-1.687 1.585-1.656 4.114-.214 5.688 1.29 1.412 4.002 1.787 5.698.274.01-.01.03-.01.04-.02l8.115-7.435a1.63 1.63 0 0 1 2.295.102c.61.66.559 1.686-.101 2.295L36.4 13.366 51.188 25.37c.294.244.558.508.802.782V6.5L46.444.955A3.23 3.23 0 0 0 44.15 0m11.1 6.52v22.74a3.247 3.247 0 0 0 3.25 3.25H65V6.52zm4.875 22.74a1.63 1.63 0 0 1-1.625-1.625 1.63 1.63 0 0 1 1.625-1.625 1.63 1.63 0 0 1 1.625 1.625 1.63 1.63 0 0 1-1.625 1.625M0 32.5h6.5a3.246 3.246 0 0 0 3.25-3.25V6.52H0zm4.875-6.49A1.63 1.63 0 0 1 6.5 27.635a1.63 1.63 0 0 1-1.625 1.625 1.63 1.63 0 0 1-1.625-1.625c0-.904.731-1.625 1.625-1.625m44.271 1.89L33.983 15.59l-3.047 2.793a7.323 7.323 0 0 1-10.329-.447 7.316 7.316 0 0 1 .447-10.329L29.362 0H20.85c-.863 0-1.686.345-2.296.955L13 6.5v22.74h1.859l9.191 8.318c2.783 2.265 6.876 1.838 9.14-.945l.02-.02 1.819 1.574a3.774 3.774 0 0 0 5.312-.548l3.189-3.92.548.446a3.245 3.245 0 0 0 4.57-.477l.965-1.188a3.256 3.256 0 0 0-.467-4.58"/></svg>