<svg xmlns="http://www.w3.org/2000/svg" width="20" height="20" fill="none"><path fill="#fff" d="M17.344 1.95c-.496-.458-2.504-1.915-6.98-1.934 0 0-5.278-.317-7.848 2.043C1.086 3.489.582 5.586.528 8.184s-.121 7.464 4.57 8.785h.004l-.004 2.015s-.031.817.508.98c.648.204 1.031-.417 1.652-1.085.34-.367.809-.906 1.164-1.317 3.211.27 5.676-.347 5.957-.437.649-.21 4.317-.68 4.91-5.547.618-5.023-.296-8.195-1.945-9.629m.543 9.26c-.504 4.063-3.476 4.321-4.023 4.497-.235.074-2.403.613-5.125.438 0 0-2.032 2.449-2.664 3.085-.207.207-.434.188-.43-.222 0-.27.016-3.348.016-3.348q-.006 0 0 0c-3.977-1.101-3.743-5.246-3.7-7.414s.453-3.945 1.664-5.14c2.176-1.973 6.657-1.68 6.657-1.68 3.785.015 5.597 1.156 6.02 1.539 1.394 1.195 2.105 4.055 1.585 8.246m-5.43-3.155c.016.336-.488.36-.504.023-.042-.86-.445-1.277-1.273-1.324-.336-.02-.305-.524.027-.504 1.09.059 1.696.684 1.75 1.805m.793.441c.04-1.656-.996-2.953-2.96-3.098-.333-.023-.297-.527.035-.503 2.265.164 3.472 1.722 3.43 3.613-.005.336-.512.32-.505-.012m1.836.524c.004.335-.504.34-.504.003-.023-3.183-2.144-4.918-4.718-4.937-.332-.004-.332-.504 0-.504 2.879.02 5.195 2.008 5.222 5.438m-.441 3.832v.007c-.422.743-1.211 1.563-2.024 1.301l-.007-.012c-.825-.23-2.766-1.23-3.993-2.207-.632-.5-1.21-1.09-1.656-1.656a12.7 12.7 0 0 1-1.203-1.82C4.93 6.96 4.747 6.289 4.747 6.289c-.262-.812.554-1.602 1.3-2.023h.008c.36-.188.703-.125.934.152 0 0 .484.578.691.863.195.266.457.692.594.93.238.426.09.86-.145 1.039l-.468.375c-.239.191-.207.547-.207.547s.695 2.629 3.292 3.293c0 0 .356.031.547-.207l.375-.469c.18-.234.614-.383 1.04-.144.574.324 1.304.828 1.788 1.285.274.222.336.562.149.922"/></svg>