<svg width="20" height="20" viewBox="0 0 20 20" fill="none" xmlns="http://www.w3.org/2000/svg">
<path d="M14.0467 12.501C16.9517 10.3906 18.358 9.35455 19.25 8.68142V15.625C19.25 16.2459 18.7459 16.75 18.125 16.75H1.875C1.25406 16.75 0.75 16.2459 0.75 15.625V8.6841C1.64345 9.35634 3.05189 10.3904 5.95696 12.5008C6.05533 12.5726 6.17599 12.6657 6.31305 12.7714C6.66417 13.0421 7.12293 13.3959 7.59033 13.6885C8.25086 14.1019 9.09208 14.5075 9.99903 14.5039C10.9124 14.51 11.764 14.0967 12.427 13.6807C12.8959 13.3864 13.3564 13.0305 13.7014 12.7638C13.8362 12.6596 13.9534 12.569 14.0467 12.501ZM10.0129 11.7501L10 11.7499L9.98707 11.7501C9.91237 11.7514 9.77421 11.7263 9.56234 11.6337C9.35767 11.5442 9.12946 11.412 8.88787 11.2514C8.56135 11.0343 8.28216 10.818 8.02038 10.6151C7.86747 10.4966 7.7205 10.3827 7.57351 10.2759L7.57332 10.2758C2.77806 6.7959 2.09073 6.25797 1.07404 5.46227C0.993499 5.39923 0.910891 5.33458 0.824009 5.26672C0.774143 5.22652 0.75 5.17218 0.75 5.11719V4.375C0.75 3.75406 1.25406 3.25 1.875 3.25H18.125C18.7459 3.25 19.25 3.75406 19.25 4.375V5.11719C19.25 5.1775 19.222 5.23102 19.1809 5.2629L19.1778 5.26533C19.1098 5.31866 19.0444 5.36998 18.9806 5.42008C17.933 6.24277 17.3098 6.73217 12.4267 10.2758L12.4265 10.2759C12.2795 10.3827 12.1325 10.4966 11.9796 10.6151C11.7178 10.818 11.4386 11.0343 11.1121 11.2514C10.8705 11.412 10.6423 11.5442 10.4377 11.6337C10.2258 11.7263 10.0876 11.7514 10.0129 11.7501Z" stroke="white" stroke-width="1.5"/>
</svg>
