<svg width="20" height="20" viewBox="0 0 20 20" fill="none" xmlns="http://www.w3.org/2000/svg">
<mask id="path-1-inside-1_601_352" fill="white">
<path d="M13.6457 2.7082C14.6118 2.71109 15.5375 3.09616 16.2207 3.77931C16.9038 4.46246 17.2889 5.38818 17.2918 6.3543V13.6457C17.2889 14.6118 16.9038 15.5375 16.2207 16.2207C15.5375 16.9038 14.6118 17.2889 13.6457 17.2918H6.3543C5.38818 17.2889 4.46246 16.9038 3.77931 16.2207C3.09616 15.5375 2.71109 14.6118 2.7082 13.6457V6.3543C2.71109 5.38818 3.09616 4.46246 3.77931 3.77931C4.46246 3.09616 5.38818 2.71109 6.3543 2.7082H13.6457ZM13.6457 1.25H6.3543C3.54687 1.25 1.25 3.54687 1.25 6.3543V13.6457C1.25 16.4531 3.54687 18.75 6.3543 18.75H13.6457C16.4531 18.75 18.75 16.4531 18.75 13.6457V6.3543C18.75 3.54687 16.4531 1.25 13.6457 1.25Z"/>
</mask>
<path d="M17.2918 6.3543H18.7918L18.7918 6.34982L17.2918 6.3543ZM17.2918 13.6457L18.7918 13.6502V13.6457H17.2918ZM13.6457 17.2918V18.7918L13.6502 18.7918L13.6457 17.2918ZM6.3543 17.2918L6.34982 18.7918H6.3543V17.2918ZM2.7082 13.6457H1.2082L1.20821 13.6502L2.7082 13.6457ZM2.7082 6.3543L1.2082 6.34982V6.3543H2.7082ZM6.3543 2.7082V1.2082L6.34982 1.20821L6.3543 2.7082ZM13.6412 4.2082C14.2111 4.2099 14.7571 4.43702 15.16 4.83997L17.2814 2.71865C16.318 1.75529 15.0126 1.21228 13.6502 1.20821L13.6412 4.2082ZM15.16 4.83997C15.563 5.24291 15.7901 5.78893 15.7918 6.35878L18.7918 6.34982C18.7877 4.98743 18.2447 3.682 17.2814 2.71865L15.16 4.83997ZM15.7918 6.3543V13.6457H18.7918V6.3543H15.7918ZM15.7918 13.6412C15.7901 14.2111 15.563 14.7571 15.16 15.16L17.2814 17.2814C18.2447 16.318 18.7877 15.0126 18.7918 13.6502L15.7918 13.6412ZM15.16 15.16C14.7571 15.563 14.2111 15.7901 13.6412 15.7918L13.6502 18.7918C15.0126 18.7877 16.318 18.2447 17.2814 17.2814L15.16 15.16ZM13.6457 15.7918H6.3543V18.7918H13.6457V15.7918ZM6.35878 15.7918C5.78893 15.7901 5.24291 15.563 4.83997 15.16L2.71865 17.2814C3.682 18.2447 4.98743 18.7877 6.34982 18.7918L6.35878 15.7918ZM4.83997 15.16C4.43702 14.7571 4.2099 14.2111 4.2082 13.6412L1.20821 13.6502C1.21228 15.0126 1.75529 16.318 2.71865 17.2814L4.83997 15.16ZM4.2082 13.6457V6.3543H1.2082V13.6457H4.2082ZM4.2082 6.35878C4.2099 5.78893 4.43702 5.24291 4.83997 4.83997L2.71865 2.71865C1.75529 3.682 1.21228 4.98743 1.20821 6.34982L4.2082 6.35878ZM4.83997 4.83997C5.24291 4.43702 5.78893 4.2099 6.35878 4.2082L6.34982 1.20821C4.98743 1.21228 3.682 1.75529 2.71865 2.71865L4.83997 4.83997ZM6.3543 4.2082H13.6457V1.2082H6.3543V4.2082ZM13.6457 -0.25H6.3543V2.75H13.6457V-0.25ZM6.3543 -0.25C2.71845 -0.25 -0.25 2.71845 -0.25 6.3543H2.75C2.75 4.3753 4.3753 2.75 6.3543 2.75V-0.25ZM-0.25 6.3543V13.6457H2.75V6.3543H-0.25ZM-0.25 13.6457C-0.25 17.2816 2.71845 20.25 6.3543 20.25V17.25C4.3753 17.25 2.75 15.6247 2.75 13.6457H-0.25ZM6.3543 20.25H13.6457V17.25H6.3543V20.25ZM13.6457 20.25C17.2816 20.25 20.25 17.2816 20.25 13.6457H17.25C17.25 15.6247 15.6247 17.25 13.6457 17.25V20.25ZM20.25 13.6457V6.3543H17.25V13.6457H20.25ZM20.25 6.3543C20.25 2.71845 17.2816 -0.25 13.6457 -0.25V2.75C15.6247 2.75 17.25 4.3753 17.25 6.3543H20.25Z" fill="white" mask="url(#path-1-inside-1_601_352)"/>
<path d="M14.7411 5.60425H14.7395C14.6715 5.60425 14.605 5.58409 14.5485 5.54632L14.1374 6.16159L14.5485 5.54632C14.4919 5.50854 14.4479 5.45486 14.4219 5.39204C14.3959 5.32923 14.389 5.26012 14.4023 5.19343C14.4156 5.12676 14.4483 5.0655 14.4964 5.01743C14.5445 4.96936 14.6057 4.93662 14.6724 4.92335C14.7391 4.91009 14.8082 4.9169 14.871 4.94291C14.9338 4.96893 14.9875 5.01299 15.0253 5.06952C15.063 5.12605 15.0832 5.19251 15.0832 5.2605L15.0832 5.26211C15.0833 5.30707 15.0745 5.3516 15.0574 5.39315L15.7506 5.67942L15.0574 5.39316C15.0402 5.43471 15.015 5.47247 14.9832 5.50426C14.9514 5.53604 14.9137 5.56124 14.8721 5.5784C14.8306 5.59556 14.786 5.60435 14.7411 5.60425Z" stroke="white" stroke-width="1.5"/>
</svg>
