<svg width="20" height="20" viewBox="0 0 20 20" fill="none" xmlns="http://www.w3.org/2000/svg">
<g clip-path="url(#clip0_320_1050)">
<path d="M9.84659 19.1706C8.81569 17.6761 7.94234 16.4321 7.20207 15.3776C5.88661 13.5037 4.99137 12.2285 4.37894 11.2102C3.90987 10.4302 3.635 9.84474 3.47242 9.29576C3.31155 8.75255 3.25 8.20912 3.25 7.5C3.25 3.77207 6.27207 0.75 10 0.75C13.7279 0.75 16.75 3.77206 16.75 7.5C16.75 8.20912 16.6884 8.75255 16.5276 9.29576C16.365 9.84474 16.0901 10.4302 15.6211 11.2102C15.0086 12.2285 14.1134 13.5037 12.7979 15.3776C12.0578 16.4319 11.1846 17.6758 10.1539 19.17C10.0796 19.2768 9.92 19.2767 9.84589 19.1696L9.22922 19.5965L9.84659 19.1706ZM10 11.375C12.1401 11.375 13.875 9.64011 13.875 7.5C13.875 5.35989 12.1401 3.625 10 3.625C7.85989 3.625 6.125 5.35989 6.125 7.5C6.125 9.64011 7.85989 11.375 10 11.375Z" stroke="white" stroke-width="1.5"/>
</g>
<defs>
<clipPath id="clip0_320_1050">
<rect width="20" height="20" fill="white"/>
</clipPath>
</defs>
</svg>
