<svg width="65" height="65" viewBox="0 0 65 65" fill="none" xmlns="http://www.w3.org/2000/svg">
<path d="M13.2031 28.4375H3.04688C1.36411 28.4375 0 29.8016 0 31.4844V61.9531C0 63.6359 1.36411 65 3.04688 65H13.2031C14.8859 65 16.25 63.6359 16.25 61.9531V31.4844C16.25 29.8016 14.8859 28.4375 13.2031 28.4375ZM8.125 59.9219C6.44224 59.9219 5.07812 58.5578 5.07812 56.875C5.07812 55.1922 6.44224 53.8281 8.125 53.8281C9.80776 53.8281 11.1719 55.1922 11.1719 56.875C11.1719 58.5578 9.80776 59.9219 8.125 59.9219ZM48.75 10.3406C48.75 15.7254 45.453 18.7459 44.5254 22.3438H57.4394C61.6793 22.3438 64.9801 25.8662 64.9999 29.7195C65.0105 31.9968 64.0419 34.4484 62.532 35.9652L62.5181 35.9791C63.7668 38.9419 63.5638 43.0932 61.3364 46.068C62.4385 49.3554 61.3276 53.3937 59.2566 55.5586C59.8023 57.7927 59.5415 59.6941 58.4761 61.2248C55.885 64.9476 49.463 65 44.0323 65L43.6711 64.9999C37.5409 64.9977 32.5239 62.7658 28.4926 60.9723C26.4668 60.071 23.8181 58.9554 21.8084 58.9184C20.9781 58.9032 20.3125 58.2257 20.3125 57.3953V30.2565C20.3125 29.8502 20.4753 29.4604 20.7642 29.1747C25.7933 24.2053 27.9558 18.9439 32.0779 14.8149C33.9573 12.932 34.6408 10.0877 35.3016 7.33713C35.8662 4.98837 37.0471 0 39.6094 0C42.6562 0 48.75 1.01562 48.75 10.3406Z" fill="white"/>
</svg>
