<svg width="65" height="65" viewBox="0 0 65 65" fill="none" xmlns="http://www.w3.org/2000/svg">
<path d="M0 51.4541V56.875C0 61.3564 10.918 65 24.375 65C37.832 65 48.75 61.3564 48.75 56.875V51.4541C43.5068 55.1484 33.9219 56.875 24.375 56.875C14.8281 56.875 5.24316 55.1484 0 51.4541ZM40.625 16.25C54.082 16.25 65 12.6064 65 8.125C65 3.64355 54.082 0 40.625 0C27.168 0 16.25 3.64355 16.25 8.125C16.25 12.6064 27.168 16.25 40.625 16.25ZM0 38.1367V44.6875C0 49.1689 10.918 52.8125 24.375 52.8125C37.832 52.8125 48.75 49.1689 48.75 44.6875V38.1367C43.5068 42.4531 33.9092 44.6875 24.375 44.6875C14.8408 44.6875 5.24316 42.4531 0 38.1367ZM52.8125 39.5332C60.0869 38.124 65 35.5088 65 32.5V27.0791C62.0547 29.1611 57.7256 30.583 52.8125 31.459V39.5332ZM24.375 20.3125C10.918 20.3125 0 24.8574 0 30.4688C0 36.0801 10.918 40.625 24.375 40.625C37.832 40.625 48.75 36.0801 48.75 30.4688C48.75 24.8574 37.832 20.3125 24.375 20.3125ZM52.2158 27.46C59.833 26.0889 65 23.3975 65 20.3125V14.8916C60.4932 18.0781 52.749 19.792 44.5986 20.1982C48.3438 22.0137 51.0986 24.4512 52.2158 27.46Z" fill="white"/>
</svg>
