<svg width="65" height="40" viewBox="0 0 65 40" fill="none" xmlns="http://www.w3.org/2000/svg">
<path d="M44.1492 0H35.425C34.6125 0 33.8305 0.304688 33.2313 0.853125L23.2477 9.99375C23.2375 10.0039 23.2273 10.0242 23.2172 10.0344C21.5312 11.6187 21.5617 14.1477 23.0039 15.7219C24.2938 17.1336 27.0055 17.5094 28.7016 15.9961C28.7117 15.9859 28.732 15.9859 28.7422 15.9758L36.857 8.54141C37.5172 7.94219 38.5531 7.98281 39.1523 8.64297C39.7617 9.30312 39.7109 10.3289 39.0508 10.9383L36.4 13.3656L51.1875 25.3703C51.482 25.6141 51.7461 25.8781 51.9898 26.1523V6.5L46.4445 0.954688C45.8453 0.345313 45.0125 0 44.1492 0ZM55.25 6.52031V29.2602C55.25 31.0578 56.7023 32.5102 58.5 32.5102H65V6.52031H55.25ZM60.125 29.2602C59.2313 29.2602 58.5 28.5289 58.5 27.6352C58.5 26.7414 59.2313 26.0102 60.125 26.0102C61.0187 26.0102 61.75 26.7414 61.75 27.6352C61.75 28.5289 61.0187 29.2602 60.125 29.2602ZM0 32.5H6.5C8.29766 32.5 9.75 31.0477 9.75 29.25V6.52031H0V32.5ZM4.875 26.0102C5.76875 26.0102 6.5 26.7414 6.5 27.6352C6.5 28.5289 5.76875 29.2602 4.875 29.2602C3.98125 29.2602 3.25 28.5289 3.25 27.6352C3.25 26.7312 3.98125 26.0102 4.875 26.0102ZM49.1461 27.8992L33.9828 15.5898L30.9359 18.3828C27.9195 21.1352 23.2984 20.8711 20.607 17.9359C17.875 14.95 18.0883 10.3289 21.0539 7.60703L29.3617 0H20.8508C19.9875 0 19.1648 0.345313 18.5555 0.954688L13 6.5V29.2398H14.8586L24.05 37.5578C26.8328 39.8227 30.9258 39.3961 33.1906 36.6133L33.2109 36.593L35.0289 38.1672C36.6437 39.4875 39.0305 39.2336 40.3406 37.6187L43.5297 33.6984L44.0781 34.1453C45.4695 35.2727 47.5211 35.0695 48.6484 33.668L49.6133 32.4797C50.7508 31.0781 50.5375 29.0367 49.1461 27.8992Z" fill="white"/>
</svg>
