<svg width="65" height="59" viewBox="0 0 65 59" fill="none" xmlns="http://www.w3.org/2000/svg">
<path d="M54.7873 0.611084L65 18.6666H53.5911L45.7821 0.611084H54.7873ZM40.3429 0.611084L48.1519 18.6666H16.8481L24.6571 0.611084H40.3429ZM10.2127 0.611084H19.2179L11.4089 18.6666H0L10.2127 0.611084ZM0 22.2778H11.3637L25.2439 50.6814C25.4132 51.0312 24.9392 51.3472 24.6797 51.0538L0 22.2778ZM16.724 22.2778H48.276L32.816 58.1857C32.7031 58.4566 32.3082 58.4566 32.1953 58.1857L16.724 22.2778ZM39.7561 50.6814L53.6363 22.2778H65L40.3203 51.0425C40.0608 51.3472 39.5868 51.0312 39.7561 50.6814Z" fill="white"/>
</svg>
