<svg width="20" height="20" viewBox="0 0 20 20" fill="none" xmlns="http://www.w3.org/2000/svg">
<path d="M19.0478 15.0757L18.2665 18.4612C18.2268 18.6334 18.1298 18.787 17.9915 18.897C17.8531 19.007 17.6816 19.0668 17.5048 19.0667C9.16809 19.0667 2.40039 12.312 2.40039 3.96226L8.8894 7.01132C8.84887 7.17578 8.75586 7.32256 8.62446 7.42944L6.65177 9.04405C7.84651 11.578 9.88579 13.6173 12.4198 14.8121L14.0344 12.8394C14.1415 12.7082 14.2882 12.6154 14.4526 12.5749M19.0478 15.0757C19.0881 14.8963 19.0647 14.7084 18.9814 14.5445C18.8982 14.3805 18.7604 14.2506 18.5918 14.1773L14.9459 12.6148M19.0478 15.0757L18.317 14.9071L18.3162 14.9105C18.3181 14.9015 18.3168 14.8921 18.3126 14.8839C18.3085 14.8757 18.3016 14.8692 18.2933 14.8653L18.2963 14.8666L18.5917 14.1774L18.2926 14.865L14.6518 13.3047L14.9459 12.6148M19.0478 15.0757L18.3161 14.9113L17.5358 18.2925L18.2604 18.4598L17.5358 18.2926C17.5342 18.2994 17.5303 18.3055 17.5248 18.3099C17.5192 18.3143 17.5124 18.3167 17.5053 18.3167H17.5048C9.58188 18.3167 3.15039 11.8974 3.15039 3.96226L3.15039 3.96209C3.15039 3.95502 3.15278 3.94816 3.15718 3.94262L2.57016 3.47582L3.15718 3.94262C3.16159 3.93709 3.16773 3.93321 3.17462 3.93162L6.55758 3.15093C6.55772 3.1509 6.55786 3.15087 6.558 3.15084C6.56615 3.14909 6.57466 3.15018 6.58211 3.15395C6.58944 3.15765 6.59529 3.16371 6.59874 3.17114L8.15967 6.81331C8.16218 6.81916 8.16271 6.82568 8.16119 6.83186C8.15966 6.83805 8.15616 6.84357 8.15122 6.84759L8.15122 6.84759L8.14942 6.84906L6.17673 8.46367L5.72375 8.83443L5.97339 9.3639C7.2424 12.0554 9.40843 14.2214 12.0999 15.4904L12.6294 15.7401L13.0002 15.2871L14.6148 13.3144L14.6153 13.3137C14.6196 13.3085 14.6255 13.3047 14.6321 13.3031L14.4526 12.5749M14.9459 12.6148C14.7901 12.5484 14.617 12.5344 14.4526 12.5749M14.9459 12.6148L14.6504 13.3041L14.6516 13.3046C14.6454 13.302 14.6386 13.3015 14.6321 13.3031L14.4526 12.5749" stroke="white" stroke-width="1.5"/>
</svg>
