<svg width="20" height="20" viewBox="0 0 20 20" fill="none" xmlns="http://www.w3.org/2000/svg">
<path d="M17.3442 1.94921C16.8481 1.49218 14.8402 0.0351481 10.3637 0.0156168C10.3637 0.0156168 5.08634 -0.300789 2.51603 2.05859C1.08634 3.48827 0.582437 5.58593 0.527749 8.18359C0.473062 10.7812 0.406655 15.6484 5.09806 16.9687H5.10197L5.09806 18.9844C5.09806 18.9844 5.06681 19.8008 5.60587 19.9648C6.25431 20.168 6.63712 19.5469 7.25822 18.8789C7.59806 18.5117 8.06681 17.9727 8.42228 17.5625C11.6332 17.832 14.0981 17.2148 14.3793 17.125C15.0278 16.9141 18.6957 16.4453 19.2895 11.5781C19.9067 6.55468 18.9926 3.3828 17.3442 1.94921ZM17.8871 11.2109C17.3832 15.2734 14.4106 15.5312 13.8637 15.707C13.6293 15.7812 11.4613 16.3203 8.73869 16.1445C8.73869 16.1445 6.70744 18.5937 6.07462 19.2305C5.86759 19.4375 5.64103 19.418 5.64494 19.0078C5.64494 18.7383 5.66056 15.6601 5.66056 15.6601C5.65666 15.6601 5.65666 15.6601 5.66056 15.6601C1.684 14.5586 1.91837 10.4141 1.96134 8.24609C2.00431 6.07812 2.41447 4.30077 3.62541 3.10546C5.80119 1.1328 10.2817 1.42577 10.2817 1.42577C14.0668 1.4414 15.8793 2.58202 16.3012 2.96484C17.6957 4.16015 18.4067 7.01952 17.8871 11.2109ZM12.4574 8.05468C12.4731 8.39062 11.9692 8.41406 11.9535 8.07812C11.9106 7.21874 11.5082 6.80077 10.6801 6.7539C10.3442 6.73437 10.3754 6.23046 10.7074 6.24999C11.7973 6.30859 12.4028 6.93359 12.4574 8.05468ZM13.2504 8.49609C13.2895 6.83984 12.2543 5.54296 10.2895 5.39843C9.95744 5.37499 9.99259 4.87109 10.3246 4.89452C12.5902 5.05859 13.7973 6.61718 13.7543 8.50781C13.7504 8.84374 13.2426 8.82812 13.2504 8.49609ZM15.0863 9.01952C15.0903 9.35546 14.5824 9.35937 14.5824 9.02343C14.559 5.83984 12.4379 4.10546 9.86369 4.08593C9.53166 4.08202 9.53166 3.58202 9.86369 3.58202C12.7426 3.60155 15.059 5.58984 15.0863 9.01952ZM14.6449 12.8516V12.8594C14.2231 13.6016 13.434 14.4219 12.6215 14.1601L12.6137 14.1484C11.7895 13.918 9.84806 12.918 8.6215 11.9414C7.98869 11.4414 7.41056 10.8516 6.96525 10.2851C6.56291 9.78124 6.15666 9.18359 5.76212 8.46484C4.93009 6.96093 4.7465 6.28906 4.7465 6.28906C4.48478 5.47655 5.30119 4.68749 6.04728 4.26562H6.05509C6.41447 4.07812 6.75822 4.14062 6.98869 4.41796C6.98869 4.41796 7.47306 4.99609 7.68009 5.28124C7.87541 5.54687 8.13712 5.97265 8.27384 6.21093C8.51212 6.63671 8.36369 7.07031 8.12931 7.24999L7.66056 7.62499C7.42228 7.8164 7.45353 8.17187 7.45353 8.17187C7.45353 8.17187 8.14884 10.8008 10.7465 11.4648C10.7465 11.4648 11.102 11.4961 11.2934 11.2578L11.6684 10.7891C11.8481 10.5547 12.2817 10.4062 12.7074 10.6445C13.2817 10.9687 14.0121 11.4726 14.4965 11.9297C14.7699 12.1523 14.8324 12.4922 14.6449 12.8516Z" fill="white"/>
</svg>
