<svg xmlns="http://www.w3.org/2000/svg" width="20" height="20" fill="none"><path stroke="#fff" stroke-width="1.5" d="M14.047 12.501c2.905-2.11 4.311-3.146 5.203-3.82v6.944c0 .62-.504 1.125-1.125 1.125H1.875c-.62 0-1.125-.504-1.125-1.125v-6.94c.893.671 2.302 1.705 5.207 3.816.098.072.219.165.356.27.351.271.81.625 1.277.917.66.414 1.502.82 2.409.816.913.006 1.765-.407 2.428-.823.469-.295.93-.65 1.274-.917.135-.104.252-.195.346-.263Zm-4.034-.75L10 11.75h-.013c-.075.001-.213-.024-.425-.116a4.6 4.6 0 0 1-.674-.383 14 14 0 0 1-.868-.636q-.228-.178-.446-.34c-4.796-3.48-5.483-4.017-6.5-4.813l-.25-.195a.19.19 0 0 1-.074-.15v-.742c0-.62.504-1.125 1.125-1.125h16.25c.62 0 1.125.504 1.125 1.125v.742c0 .06-.028.114-.07.146l-.002.002-.197.155c-1.048.823-1.671 1.312-6.554 4.856q-.219.16-.447.34c-.262.202-.541.418-.868.635-.242.161-.47.293-.674.383-.212.092-.35.117-.425.116Z"/></svg>