<svg xmlns="http://www.w3.org/2000/svg" width="20" height="20" fill="none"><mask id="a" fill="#fff"><path d="M13.646 2.708a3.657 3.657 0 0 1 3.646 3.646v7.292a3.657 3.657 0 0 1-3.646 3.646H6.354a3.657 3.657 0 0 1-3.646-3.646V6.354a3.657 3.657 0 0 1 3.646-3.646zm0-1.458H6.354c-2.807 0-5.104 2.297-5.104 5.104v7.292c0 2.807 2.297 5.104 5.104 5.104h7.292c2.807 0 5.104-2.297 5.104-5.104V6.354c0-2.807-2.297-5.104-5.104-5.104"/></mask><path fill="#fff" d="M17.292 6.354h1.5V6.35zm0 7.292 1.5.004v-.004zm-3.646 3.646v1.5h.004zm-7.292 0-.004 1.5h.004zm-3.646-3.646h-1.5v.004zm0-7.292-1.5-.004v.004zm3.646-3.646v-1.5H6.35zm7.287 1.5c.57.002 1.116.229 1.519.632l2.121-2.121a5.16 5.16 0 0 0-3.63-1.51zm1.519.632c.403.403.63.949.632 1.519l3-.01a5.16 5.16 0 0 0-1.51-3.63zm.632 1.514v7.292h3V6.354zm0 7.287a2.16 2.16 0 0 1-.632 1.519l2.121 2.121a5.16 5.16 0 0 0 1.51-3.63zm-.632 1.519c-.403.403-.949.63-1.519.632l.01 3a5.16 5.16 0 0 0 3.63-1.51zm-1.514.632H6.354v3h7.292zm-7.287 0a2.16 2.16 0 0 1-1.519-.632l-2.121 2.121a5.16 5.16 0 0 0 3.63 1.51zM4.84 15.16a2.16 2.16 0 0 1-.632-1.519l-3 .01a5.16 5.16 0 0 0 1.51 3.63zm-.632-1.514V6.354h-3v7.292zm0-7.287c.002-.57.229-1.116.632-1.519L2.719 2.719a5.16 5.16 0 0 0-1.51 3.63zM4.84 4.84c.403-.403.949-.63 1.519-.632l-.01-3a5.16 5.16 0 0 0-3.63 1.51zm1.514-.632h7.292v-3H6.354zM13.646-.25H6.354v3h7.292zm-7.292 0C2.718-.25-.25 2.718-.25 6.354h3A3.62 3.62 0 0 1 6.354 2.75zM-.25 6.354v7.292h3V6.354zm0 7.292c0 3.636 2.968 6.604 6.604 6.604v-3a3.62 3.62 0 0 1-3.604-3.604zm6.604 6.604h7.292v-3H6.354zm7.292 0c3.636 0 6.604-2.968 6.604-6.604h-3a3.62 3.62 0 0 1-3.604 3.604zm6.604-6.604V6.354h-3v7.292zm0-7.292c0-3.636-2.968-6.604-6.604-6.604v3a3.62 3.62 0 0 1 3.604 3.604z" mask="url(#a)"/><path stroke="#fff" stroke-width="1.5" d="M14.741 5.604h-.002a.34.34 0 0 1-.19-.058l-.412.616.412-.616a.343.343 0 1 1 .534-.285v.001q0 .069-.026.131l.694.286-.694-.286a.34.34 0 0 1-.316.211Z"/></svg>