<svg xmlns="http://www.w3.org/2000/svg" width="20" height="20" fill="none"><g clip-path="url(#a)"><path stroke="#fff" stroke-width="1.5" d="M9.847 19.17c-1.031-1.494-1.905-2.738-2.645-3.792-1.315-1.874-2.21-3.15-2.823-4.168-.47-.78-.744-1.365-.907-1.914-.16-.543-.222-1.087-.222-1.796a6.75 6.75 0 1 1 13.5 0c0 .71-.062 1.253-.222 1.796-.163.549-.438 1.134-.907 1.914-.612 1.018-1.508 2.294-2.823 4.168a546 546 0 0 0-2.644 3.792.188.188 0 0 1-.308 0l-.617.426zM10 11.376a3.875 3.875 0 1 0 0-7.75 3.875 3.875 0 0 0 0 7.75Z"/></g><defs><clipPath id="a"><path fill="#fff" d="M0 0h20v20H0z"/></clipPath></defs></svg>