<svg xmlns="http://www.w3.org/2000/svg" width="20" height="20" fill="none"><path stroke="#fff" stroke-width="1.5" d="m19.048 15.076-.781 3.385a.78.78 0 0 1-.762.606C9.168 19.067 2.4 12.312 2.4 3.962l6.49 3.05a.78.78 0 0 1-.266.417L6.652 9.044a12.07 12.07 0 0 0 5.768 5.768l1.614-1.973a.78.78 0 0 1 .419-.264m4.595 2.5a.79.79 0 0 0-.456-.898l-3.646-1.562m4.102 2.46-.731-.168v.004a.04.04 0 0 0-.023-.045h.002l.296-.689-.3.688-3.64-1.56.294-.69m4.102 2.46-.732-.164-.78 3.382.724.167-.724-.167a.03.03 0 0 1-.03.024h-.001c-7.923 0-14.355-6.42-14.355-14.355q0-.01.007-.02l-.587-.466.587.467a.03.03 0 0 1 .018-.011l3.383-.781a.04.04 0 0 1 .04.02L8.16 6.813a.03.03 0 0 1-.009.035l-.002.001-1.972 1.615-.453.37.25.53A12.82 12.82 0 0 0 12.1 15.49l.53.25.37-.453 1.615-1.973a.03.03 0 0 1 .017-.01l-.18-.73m.494.04a.78.78 0 0 0-.493-.04m.493.04-.296.69h.002a.03.03 0 0 0-.02 0l-.18-.73"/></svg>